<?xml version="1.0" encoding="iso-8859-1"?>
<!-- Generator: Adobe Illustrator 16.0.0, SVG Export Plug-In . SVG Version: 6.00 Build 0)  -->
<!DOCTYPE svg PUBLIC "-//W3C//DTD SVG 1.1//EN" "http://www.w3.org/Graphics/SVG/1.1/DTD/svg11.dtd">
<svg version="1.1" id="Capa_1" xmlns="http://www.w3.org/2000/svg" xmlns:xlink="http://www.w3.org/1999/xlink" x="0px" y="0px"
	 width="351.017px" height="351.017px" viewBox="0 0 351.017 351.017" style="enable-background:new 0 0 351.017 351.017;"
	 xml:space="preserve">
<g>
	<path d="M346.782,62.861L288.157,4.233C285.462,1.52,281.786,0,277.968,0c-3.831,0-7.494,1.514-10.196,4.233L4.221,267.778
		c-2.762,2.756-4.293,6.539-4.212,10.442l1.039,57.598c0.129,7.765,6.407,14.009,14.163,14.165l57.583,1.033c0.093,0,0.18,0,0.258,0
		c3.825,0,7.497-1.525,10.196-4.233L346.782,83.257C352.421,77.624,352.421,68.494,346.782,62.861z M67.184,322.073l-37.557-0.672
		l-0.675-37.566l20.771-20.776l38.242,38.238L67.184,322.073z M279.883,109.378l-38.244-38.239l36.329-36.329l38.238,38.253
		L279.883,109.378z"/>
</g>
<g>
</g>
<g>
</g>
<g>
</g>
<g>
</g>
<g>
</g>
<g>
</g>
<g>
</g>
<g>
</g>
<g>
</g>
<g>
</g>
<g>
</g>
<g>
</g>
<g>
</g>
<g>
</g>
<g>
</g>
</svg>
