<?xml version="1.0" encoding="iso-8859-1"?>
<!-- Generator: Adobe Illustrator 19.0.0, SVG Export Plug-In . SVG Version: 6.00 Build 0)  -->
<svg version="1.1" id="Layer_1" xmlns="http://www.w3.org/2000/svg" xmlns:xlink="http://www.w3.org/1999/xlink" x="0px" y="0px"
	 viewBox="0 0 350 350" style="enable-background:new 0 0 350 350;" xml:space="preserve">
<g id="XMLID_7_">
	<path id="XMLID_8_" d="M285,150.145V15c0-8.284-6.716-15-15-15H150c-8.284,0-15,6.716-15,15v15H20c-8.284,0-15,6.716-15,15v200
		c0,8.284,6.716,15,15,15h116.076c7.301,50.816,51.119,90,103.924,90C297.897,350,345,302.897,345,245
		C345,203.197,320.443,167.027,285,150.145z M35,60h115c8.284,0,15-6.716,15-15V30H255v111.076C250.099,140.372,245.093,140,240,140
		c-52.805,0-96.623,39.184-103.924,90H35V60z M240,320c-41.355,0-75-33.645-75-75s33.645-75,75-75S315,203.645,315,245
		S281.355,320,240,320z"/>
	<path id="XMLID_12_" d="M258.082,215.269l-27.643,27.643l-8.519-8.518c-5.857-5.857-15.355-5.857-21.213,0
		c-5.858,5.857-5.858,15.355,0,21.213l19.125,19.125c2.929,2.929,6.768,4.394,10.607,4.394c3.839,0,7.678-1.465,10.606-4.394
		l38.25-38.25c5.858-5.857,5.858-15.355,0-21.213C273.437,209.411,263.939,209.411,258.082,215.269z"/>
</g>
<g>
</g>
<g>
</g>
<g>
</g>
<g>
</g>
<g>
</g>
<g>
</g>
<g>
</g>
<g>
</g>
<g>
</g>
<g>
</g>
<g>
</g>
<g>
</g>
<g>
</g>
<g>
</g>
<g>
</g>
</svg>
